<?xml version="1.0" encoding="UTF-8"?>
<svg width="159px" height="52px" viewBox="0 0 159 52" version="1.1" xmlns="http://www.w3.org/2000/svg" xmlns:xlink="http://www.w3.org/1999/xlink">
    <!-- Generator: Sketch 61.2 (89653) - https://sketch.com -->
    <title>logo复制</title>
    <desc>Created with Sketch.</desc>
    <g id="0207" stroke="none" stroke-width="1" fill="none" fill-rule="evenodd">
        <g id="首页" transform="translate(-40.000000, -20.000000)" fill="#293040">
            <g id="logo" transform="translate(40.000000, 20.000000)">
                <g id="LOGO">
                    <path d="M158.493046,49.801296 C158.479001,49.8242929 158.455927,49.8432903 158.421818,49.8572884 C158.388712,49.8702867 158.345574,49.8812852 158.290397,49.8892841 C158.236224,49.8972831 158.169009,49.9012825 158.090759,49.9012825 C158.009499,49.9012825 157.940277,49.8972831 157.886104,49.8892841 C157.830927,49.8812852 157.786786,49.8702867 157.751674,49.8572884 C157.715558,49.8432903 157.690478,49.8242929 157.67543,49.801296 C157.659379,49.7782991 157.651353,49.7503028 157.651353,49.719307 L157.651353,49.021401 C157.374467,49.3223605 157.085543,49.5573288 156.786586,49.7253062 C156.488633,49.8932836 156.160586,49.9772723 155.805448,49.9772723 C155.418209,49.9772723 155.088153,49.9022824 154.81528,49.7513027 C154.541404,49.6013229 154.319694,49.3973504 154.150152,49.1413848 C153.979606,48.8854193 153.856212,48.5844598 153.777961,48.2385064 C153.699711,47.8935528 153.660586,47.5286019 153.660586,47.1456535 C153.660586,46.6927144 153.70874,46.2827696 153.807054,45.9178188 C153.904366,45.551868 154.048828,45.2409099 154.240441,44.9829446 C154.432054,44.7249793 154.669815,44.5260061 154.95272,44.3870248 C155.235625,44.2490434 155.562671,44.1790528 155.934862,44.1790528 C156.242847,44.1790528 156.525752,44.2470437 156.78157,44.3820255 C157.037389,44.5160075 157.290198,44.7149807 157.539997,44.9769454 L157.539997,41.9103582 C157.539997,41.8833619 157.547019,41.8573654 157.561064,41.8313689 C157.574106,41.8063722 157.601192,41.7863749 157.640318,41.7733767 C157.67844,41.7593785 157.7286,41.7473802 157.789796,41.7373815 C157.849988,41.7283827 157.927236,41.7233834 158.020534,41.7233834 C158.118849,41.7233834 158.199105,41.7283827 158.261304,41.7373815 C158.323503,41.7473802 158.372661,41.7593785 158.407773,41.7733767 C158.442885,41.7863749 158.468969,41.8063722 158.487026,41.8313689 C158.504081,41.8573654 158.51311,41.8833619 158.51311,41.9103582 L158.51311,49.719307 C158.51311,49.7503028 158.506087,49.7782991 158.493046,49.801296 Z M157.539997,46.0088065 C157.278159,45.6838503 157.02535,45.4368835 156.78157,45.2669064 C156.536787,45.0969293 156.281972,45.0119407 156.016122,45.0119407 C155.770335,45.0119407 155.561668,45.0709328 155.389116,45.187917 C155.217567,45.3049013 155.078121,45.4588805 154.969774,45.6508547 C154.862431,45.841829 154.78418,46.0587998 154.736026,46.3017671 C154.686869,46.5437345 154.662792,46.7897014 154.662792,47.0406676 C154.662792,47.3056319 154.682856,47.5655969 154.723988,47.8195628 C154.765119,48.0735286 154.836347,48.2994981 154.937671,48.4964716 C155.039999,48.694445 155.174429,48.8524237 155.341965,48.9714077 C155.510504,49.0913915 155.721178,49.1503836 155.97499,49.1503836 C156.104404,49.1503836 156.228802,49.1333859 156.347181,49.0973907 C156.466563,49.0623954 156.588954,49.0044033 156.714355,48.9214144 C156.838753,48.8394255 156.970174,48.7334397 157.10661,48.6024574 C157.243047,48.471475 157.387509,48.3104967 157.539997,48.1185225 L157.539997,46.0088065 Z M79.2595646,38.9947507 L73.2493368,36.0021536 L0.00601925661,36.0021536 L0.00601925661,35.0022882 L71.2409115,35.0022882 L73.245324,35.0022882 L79.2595646,37.996885 L85.2738051,35.0022882 L87.2782176,35.0022882 L157.5099,35.0022882 L157.5099,36.0021536 L85.2697923,36.0021536 L79.2595646,38.9947507 Z M154.764116,20.324264 C154.764116,19.849328 154.64975,19.485377 154.421019,19.2294114 C154.192287,18.9744457 153.861228,18.8474628 153.427841,18.8474628 C152.782778,18.8474628 152.289199,19.0114408 151.946101,19.3393966 C151.604006,19.6683523 151.432458,20.1402888 151.432458,20.755206 L151.432458,25.1876094 L149.339763,25.1876094 L149.339763,20.324264 C149.339763,19.849328 149.227403,19.485377 149.001681,19.2294114 C148.775959,18.9744457 148.445903,18.8474628 148.012517,18.8474628 C147.367453,18.8474628 146.873874,19.0114408 146.530776,19.3393966 C146.187679,19.6683523 146.017133,20.1402888 146.017133,20.755206 L146.017133,25.1876094 L143.924438,25.1876094 L143.924438,17.2646759 L145.867655,17.2646759 L145.867655,18.5924972 C146.282984,18.0705674 146.731418,17.6826196 147.211956,17.427654 C147.692493,17.1726883 148.223191,17.0447055 148.804049,17.0447055 C149.389923,17.0447055 149.889522,17.1726883 150.302844,17.427654 C150.716166,17.6826196 151.057257,18.0705674 151.327121,18.5924972 C151.701318,18.088565 152.141727,17.7046167 152.645338,17.4406522 C153.148949,17.1766878 153.694695,17.0447055 154.280569,17.0447055 C155.124268,17.0447055 155.763313,17.2836734 156.196699,17.761609 C156.631089,18.2395447 156.847782,18.9444498 156.847782,19.8763243 L156.847782,25.1876094 L154.764116,25.1876094 L154.764116,20.324264 Z M134.310682,25.5475609 C133.067706,25.5475609 132.041423,25.1406157 131.228823,24.3257254 C130.417226,23.5108351 130.01193,22.4759744 130.01193,21.2211433 C130.01193,19.9733113 130.417226,18.9414502 131.228823,18.1265599 C132.041423,17.3116696 133.067706,16.9037245 134.310682,16.9037245 C135.552656,16.9037245 136.576932,17.3096699 137.383513,18.1215606 C138.18909,18.9334513 138.59238,19.9673121 138.59238,21.2211433 C138.59238,22.4819736 138.18909,23.5178341 137.383513,24.3297248 C136.576932,25.1416156 135.552656,25.5475609 134.310682,25.5475609 Z M135.857631,19.3134001 C135.459357,18.8214663 134.943707,18.5744996 134.310682,18.5744996 C133.671638,18.5744996 133.151975,18.8194666 132.749688,19.3094007 C132.348405,19.7983348 132.147763,20.4422482 132.147763,21.2391409 C132.147763,22.0310343 132.348405,22.6709481 132.749688,23.1608822 C133.151975,23.6498164 133.671638,23.8947834 134.310682,23.8947834 C134.937688,23.8947834 135.452335,23.6488165 135.853618,23.1558829 C136.254902,22.6639491 136.455544,22.0250351 136.455544,21.2391409 C136.455544,20.4482474 136.255905,19.8063338 135.857631,19.3134001 Z M120.91583,25.5475609 C119.673857,25.5475609 118.64657,25.1406157 117.834974,24.3257254 C117.022374,23.5108351 116.617077,22.4759744 116.617077,21.2211433 C116.617077,19.9733113 117.022374,18.9414502 117.834974,18.1265599 C118.64657,17.3116696 119.673857,16.9037245 120.91583,16.9037245 C122.158806,16.9037245 123.183083,17.3096699 123.98866,18.1215606 C124.794238,18.9334513 125.197528,19.9673121 125.197528,21.2211433 C125.197528,22.4819736 124.794238,23.5178341 123.98866,24.3297248 C123.183083,25.1416156 122.158806,25.5475609 120.91583,25.5475609 Z M122.462779,19.3134001 C122.064505,18.8214663 121.548855,18.5744996 120.91583,18.5744996 C120.276785,18.5744996 119.757123,18.8194666 119.355839,19.3094007 C118.953552,19.7983348 118.75291,20.4422482 118.75291,21.2391409 C118.75291,22.0310343 118.953552,22.6709481 119.355839,23.1608822 C119.757123,23.6498164 120.276785,23.8947834 120.91583,23.8947834 C121.542836,23.8947834 122.057482,23.6488165 122.458766,23.1558829 C122.86005,22.6639491 123.060692,22.0250351 123.060692,21.2391409 C123.060692,20.4482474 122.862056,19.8063338 122.462779,19.3134001 Z M110.053078,25.1876094 L106.184703,19.8933221 L105.103243,19.8933221 L105.103243,25.1876094 L102.906214,25.1876094 L102.906214,12.4373257 L105.859663,12.4373257 C106.90902,12.4373257 107.721619,12.5063165 108.299468,12.643298 C108.876313,12.7812794 109.39096,13.0052493 109.842404,13.3162074 C110.310903,13.6501625 110.677074,14.055108 110.940918,14.530044 C111.204763,15.0049801 111.337186,15.5089123 111.337186,16.0428404 C111.337186,16.8807276 111.096416,17.6046301 110.615879,18.214548 C110.135341,18.8234661 109.44413,19.2814044 108.541242,19.5863634 L112.664432,25.1876094 L110.053078,25.1876094 Z M109.104042,16.2178168 C109.104042,15.5439076 108.849227,15.0489742 108.338593,14.7320168 C107.828963,14.4160594 107.026395,14.2570808 105.929887,14.2570808 L105.103243,14.2570808 L105.103243,18.2585421 L106.132536,18.2585421 C107.09963,18.2585421 107.835985,18.0835657 108.343609,17.7346126 C108.85023,17.3866595 109.104042,16.8807276 109.104042,16.2178168 Z M79.9176699,32.0036918 L79.6558323,32.0036918 C79.5163862,32.0036918 79.3849657,31.9746957 79.2595646,31.9297018 C79.1341634,31.9746957 79.0027429,32.0036918 78.8632968,32.0036918 L78.6014592,32.0036918 L66.1496237,25.8795162 C65.6088938,25.7225374 65.2106196,25.1926087 65.2106196,24.5666929 L65.2106196,7.66196858 C65.2106196,7.03205338 65.7031955,6.52012229 66.3081308,6.52012229 L66.5649524,6.52012229 L79.1923495,12.643298 C79.2164266,12.6502971 79.2364907,12.6672948 79.2595646,12.6752937 C79.2826384,12.6672948 79.3016994,12.6502971 79.3257764,12.643298 L91.9541767,6.52012229 L92.2109984,6.52012229 C92.8159336,6.52012229 93.3085095,7.03205338 93.3085095,7.66196858 L93.3085095,24.5666929 C93.3085095,25.1926087 92.9102353,25.7225374 92.3695054,25.8795162 L79.9176699,32.0036918 Z M78.3817563,14.1910897 L66.9592137,8.83881016 L66.9592137,24.3297248 L66.9642297,24.3337243 L78.3817563,29.7839906 L78.3817563,14.1910897 Z M91.5599154,8.83881016 L80.1363696,14.1910897 L80.1363696,29.7839906 L91.5548994,24.3337243 L91.5599154,24.3297248 L91.5599154,8.83881016 Z M87.5510905,7.29501798 C87.0434666,7.29501798 86.6311475,6.9070702 86.6311475,6.42813467 L86.6311475,4.92233738 L83.1329562,9.61470571 C82.9543849,9.85567327 82.6684702,9.98365605 82.3795459,9.98365605 C82.1959586,9.98365605 82.011368,9.93266291 81.8508545,9.82567731 C81.4345226,9.55071433 81.3342017,9.00878728 81.6271388,8.61684004 L86.3612841,2.26469514 C86.6722791,1.84875113 87.1849191,1.67377468 87.6654564,1.81675544 C88.1480001,1.96073605 88.4720368,2.39967697 88.4720368,2.90860846 L88.4720368,6.42813467 C88.4720368,6.9070702 88.0597177,7.29501798 87.5510905,7.29501798 Z M79.2595646,9.48972254 C78.7750144,9.48972254 78.3817563,9.09677543 78.3817563,8.61084085 L78.3817563,0.877881824 C78.3817563,0.392947103 78.7750144,0 79.2595646,0 C79.7441147,0 80.1373728,0.392947103 80.1373728,0.877881824 L80.1373728,8.61084085 C80.1373728,9.09677543 79.7441147,9.48972254 79.2595646,9.48972254 Z M76.5789889,9.98365605 C76.2890614,9.98365605 76.0041499,9.85567327 75.8245755,9.61470571 L72.3273874,4.92233738 L72.3273874,6.42813467 C72.3273874,6.9070702 71.9150683,7.29501798 71.4064411,7.29501798 C70.8978139,7.29501798 70.4864981,6.9070702 70.4864981,6.42813467 L70.4864981,2.90860846 C70.4864981,2.39967697 70.8105347,1.96073605 71.2920752,1.81675544 C71.7726125,1.67377468 72.2862558,1.84875113 72.5962475,2.26469514 L77.331396,8.61684004 C77.62333,9.00878728 77.523009,9.55071433 77.1076803,9.82567731 C76.9461636,9.93266291 76.7615731,9.98365605 76.5789889,9.98365605 Z M51.3452621,20.0343031 L52.5671711,20.6152249 C53.3286071,20.9611783 53.8472664,21.3081316 54.123149,21.6570846 C54.3990316,22.0060376 54.5364713,22.4499779 54.5364713,22.9889053 C54.5364713,23.7747995 54.2625951,24.4007153 53.7138395,24.8666526 C53.1660872,25.3325898 52.4377571,25.5655585 51.5298526,25.5655585 C51.0142029,25.5655585 50.506579,25.5125656 50.0089871,25.4075797 C49.510392,25.301594 49.0208258,25.1436153 48.5402885,24.9326437 L48.6105131,22.9889053 C49.1562591,23.2878651 49.6568606,23.5138347 50.1143241,23.6658142 C50.5717876,23.8187936 50.9871163,23.8947834 51.3623166,23.8947834 C51.7024046,23.8947834 51.9682551,23.8257927 52.1578617,23.6878113 C52.3484715,23.5508297 52.4437764,23.3588555 52.4437764,23.1118888 C52.4437764,22.9299133 52.3695389,22.7709347 52.2200607,22.6329533 C52.0705825,22.4949718 51.761594,22.3269944 51.292092,22.1270214 L50.5366752,21.8020651 C49.8334254,21.5031054 49.3117565,21.1551522 48.9716685,20.7602054 C48.6315805,20.3642587 48.4620381,19.8993212 48.4620381,19.366393 C48.4620381,18.6214933 48.7339079,18.0225739 49.2786506,17.5676351 C49.8243965,17.1136962 50.5416913,16.8867268 51.4335445,16.8867268 C51.8839855,16.8867268 52.3474683,16.9477186 52.8219863,17.070702 C53.2965044,17.1946853 53.7479486,17.3726614 54.1763191,17.6076297 L53.9736708,19.4633799 C53.3877965,19.128425 52.892211,18.8824581 52.4879176,18.7244794 C52.0836242,18.5655008 51.7495555,18.4865114 51.4857114,18.4865114 C51.2098288,18.4865114 50.9891227,18.5525025 50.8215867,18.6844848 C50.655054,18.816467 50.5717876,18.9854443 50.5717876,19.1904167 C50.5717876,19.3603938 50.6329834,19.5123733 50.7563781,19.6473552 C50.8787697,19.782337 51.0753987,19.9113196 51.3452621,20.0343031 Z M39.9457933,20.0343031 L41.1677023,20.6152249 C41.9301415,20.9611783 42.4488008,21.3081316 42.7236802,21.6570846 C42.9995628,22.0060376 43.1370025,22.4499779 43.1370025,22.9889053 C43.1370025,23.7747995 42.8631263,24.4007153 42.3153739,24.8666526 C41.7676216,25.3325898 41.0392915,25.5655585 40.1303838,25.5655585 C39.6147341,25.5655585 39.1081134,25.5125656 38.6095183,25.4075797 C38.1119264,25.301594 37.6223602,25.1436153 37.1418229,24.9326437 L37.2120475,22.9889053 C37.7567903,23.2878651 38.258395,23.5138347 38.7148553,23.6658142 C39.1723188,23.8187936 39.5886507,23.8947834 39.963851,23.8947834 C40.303939,23.8947834 40.5687863,23.8257927 40.7593961,23.6878113 C40.9500059,23.5508297 41.0453108,23.3588555 41.0453108,23.1118888 C41.0453108,22.9299133 40.9700701,22.7709347 40.8205919,22.6329533 C40.6711137,22.4949718 40.3621252,22.3269944 39.8936264,22.1270214 L39.1372064,21.8020651 C38.4339566,21.5031054 37.9122877,21.1551522 37.5721997,20.7602054 C37.2321117,20.3642587 37.0625693,19.8993212 37.0625693,19.366393 C37.0625693,18.6214933 37.3354423,18.0225739 37.880185,17.5676351 C38.4249277,17.1136962 39.1432257,16.8867268 40.0340757,16.8867268 C40.4855199,16.8867268 40.9479995,16.9477186 41.4235207,17.070702 C41.8980388,17.1946853 42.3494831,17.3726614 42.7768503,17.6076297 L42.5752052,19.4633799 C41.9883277,19.128425 41.4937454,18.8824581 41.089452,18.7244794 C40.6841554,18.5655008 40.3500867,18.4865114 40.0872458,18.4865114 C39.8113632,18.4865114 39.5896539,18.5525025 39.4231211,18.6844848 C39.2555852,18.816467 39.1723188,18.9854443 39.1723188,19.1904167 C39.1723188,19.3603938 39.2345178,19.5123733 39.3569093,19.6473552 C39.4803041,19.782337 39.6769331,19.9113196 39.9457933,20.0343031 Z M29.6378163,24.9496414 C29.1923913,25.1496145 28.779069,25.2985944 28.3978495,25.398581 C28.0176331,25.4975676 27.6594873,25.5475609 27.3254186,25.5475609 C26.1125384,25.5475609 25.1324027,25.1626127 24.3850117,24.3917165 C23.6376207,23.6208203 23.2644268,22.6139558 23.2644268,21.3711231 C23.2644268,20.1282904 23.6697234,19.0814313 24.4813198,18.2315458 C25.2929163,17.3816602 26.2740551,16.9567174 27.4227299,16.9567174 C27.7447601,16.9567174 28.0788289,16.9977118 28.4249361,17.0797008 C28.7700402,17.1616898 29.1362116,17.2876728 29.5234504,17.4576499 L31.413497,17.2646759 L31.413497,22.7959313 C31.413497,23.2178745 31.4355676,23.6278193 31.4797088,24.0267656 C31.5238501,24.4257119 31.5870522,24.8126598 31.6683122,25.1876094 L29.7782656,25.5655585 L29.6378163,24.9496414 Z M29.329831,18.9534486 C29.0308746,18.79447 28.7600081,18.6774857 28.5172314,18.601496 C28.2734515,18.5245063 28.0527454,18.4865114 27.8531067,18.4865114 C27.1147446,18.4865114 26.5188382,18.7564751 26.0643843,19.2954025 C25.6099304,19.8353299 25.3832051,20.5502336 25.3832051,21.4411137 C25.3832051,22.2210087 25.5818406,22.8309266 25.9811179,23.2708674 C26.3793921,23.7098083 26.9301541,23.9297787 27.6334039,23.9297787 C27.8791902,23.9297787 28.1430343,23.882785 28.4249361,23.7887977 C28.7058347,23.6958102 29.0078008,23.5548292 29.329831,23.3668545 L29.329831,18.9534486 Z M15.7684459,12.6392986 L17.8962531,12.2613494 L17.8962531,25.1876094 L15.7684459,25.1876094 L15.7684459,12.6392986 Z M6.4967843,23.4198473 C7.18899881,23.4198473 7.85111703,23.2678678 8.48414218,22.9629088 C9.11716734,22.6579499 9.75219891,22.1800142 10.3912433,21.5291019 L10.2598229,24.3607207 C9.69100313,24.7656662 9.08205501,25.0726248 8.43097208,25.2845963 C7.78089237,25.4955679 7.11275489,25.6005538 6.42655964,25.6005538 C5.70023601,25.6005538 4.9979894,25.4815698 4.32082303,25.2446017 C3.64465987,25.0066337 3.02467644,24.66268 2.46187595,24.2117407 C1.67034371,23.5718269 1.06239879,22.7879324 0.637037991,21.8590574 C0.2126804,20.9301825 2.29670379e-14,19.9143192 2.29670379e-14,18.8124676 C2.29670379e-14,16.8597304 0.616973802,15.2379487 1.85092141,13.9451228 C3.08486901,12.6522968 4.62780512,12.0063838 6.47972974,12.0063838 C7.15388648,12.0063838 7.79995335,12.1053704 8.41793036,12.3053435 C9.03590737,12.5043167 9.63883624,12.8062761 10.2247106,13.2112216 L9.9959788,15.6988867 C9.48634841,15.15396 8.95264099,14.7470148 8.39585975,14.4770512 C7.83907852,14.2070875 7.25019458,14.0721057 6.62920794,14.0721057 C5.36315764,14.0721057 4.32583908,14.5140462 3.51725228,15.3959275 C2.70766226,16.2778088 2.30336886,17.4106563 2.30336886,18.79447 C2.30336886,20.1372892 2.69763017,21.2431403 3.48615278,22.1140231 C4.2746754,22.9849059 5.27788483,23.4198473 6.4967843,23.4198473 Z M2.03651515,42.2803084 L3.66071123,42.2803084 C3.82423436,42.2803084 3.98173824,42.2873075 4.13221966,42.3003057 C4.28270107,42.3143038 4.46026914,42.3432999 4.66592708,42.3882939 C4.8705818,42.4332878 5.07924937,42.5172765 5.29293297,42.64026 C5.50561337,42.7632434 5.68619107,42.915223 5.83466607,43.0951987 C5.98314107,43.2751745 6.09750694,43.4831465 6.1777637,43.7191147 C6.25802045,43.9560828 6.29814883,44.2160478 6.29814883,44.5020093 C6.29814883,44.8809583 6.23494663,45.2229123 6.11054866,45.5278712 C5.98514748,45.8328302 5.80657621,46.0927952 5.57383162,46.3077663 C5.34108703,46.5227373 5.05617555,46.688715 4.71809397,46.8056992 C4.38001239,46.9226835 3.9767222,46.9816755 3.50822339,46.9816755 L2.64646649,46.9816755 L2.64646649,49.7133078 C2.64646649,49.7443037 2.6374376,49.7722999 2.62038304,49.7952968 C2.60232527,49.8192936 2.57523862,49.8372911 2.53811987,49.8512892 C2.50100112,49.8642875 2.44983744,49.8762859 2.38563203,49.8862845 C2.32142663,49.8962832 2.24016667,49.9012825 2.14185214,49.9012825 C2.04454083,49.9012825 1.96328086,49.8962832 1.89907546,49.8862845 C1.83487006,49.8762859 1.78270316,49.8642875 1.743578,49.8512892 C1.70445283,49.8372911 1.67736617,49.8192936 1.66131482,49.7952968 C1.64626668,49.7722999 1.63824101,49.7443037 1.63824101,49.7133078 L1.63824101,42.71425 C1.63824101,42.5572711 1.67937259,42.4462861 1.76163577,42.3792951 C1.84389894,42.313304 1.935191,42.2803084 2.03651515,42.2803084 Z M2.64646649,46.1547869 L3.55437103,46.1547869 C3.85934669,46.1547869 4.11215547,46.1157921 4.31380057,46.0378026 C4.51544566,45.9598131 4.68398485,45.8508278 4.82042133,45.7128463 C4.95786102,45.5738651 5.0611916,45.4078874 5.13141626,45.2139135 C5.20164092,45.0209395 5.23675325,44.8109678 5.23675325,44.5839983 C5.23675325,44.2750399 5.17957031,44.0170746 5.06420122,43.8101025 C4.94883214,43.6031303 4.8063764,43.4481512 4.6358308,43.3471648 C4.4662884,43.2451785 4.29072675,43.1811871 4.10814263,43.1531909 C3.92656173,43.1261946 3.74999686,43.1121964 3.57844805,43.1121964 L2.64646649,43.1121964 L2.64646649,46.1547869 Z M10.6701355,45.0059415 C10.8948545,44.7439768 11.1747499,44.5410041 11.510825,44.3960236 C11.8469002,44.252043 12.2401583,44.1790528 12.6885929,44.1790528 C13.1229826,44.1790528 13.5011926,44.2440441 13.8232228,44.3730267 C14.145253,44.5020093 14.4141132,44.6889842 14.6288,44.9359509 C14.8434868,45.1819178 15.0050035,45.4808776 15.1123469,45.8328302 C15.2196903,46.183783 15.2738636,46.5807295 15.2738636,47.02267 C15.2738636,47.4526121 15.2166807,47.8485588 15.103318,48.2095103 C14.9899554,48.5714615 14.8214162,48.8824197 14.5966973,49.1443844 C14.3719784,49.4063491 14.0910797,49.6103217 13.7529981,49.7573019 C13.4149166,49.9042821 13.0226617,49.9772723 12.5772367,49.9772723 C12.1438502,49.9772723 11.7656402,49.912281 11.44361,49.7832984 C11.1215798,49.6543158 10.8527197,49.4673409 10.6380328,49.221374 C10.4223428,48.9744073 10.2628325,48.6754475 10.1574955,48.3244948 C10.0521585,47.9725422 9.99898843,47.5735959 9.99898843,47.1276559 C9.99898843,46.6987136 10.0541649,46.3027669 10.1655212,45.9408157 C10.2768774,45.5798642 10.4454166,45.2679062 10.6701355,45.0059415 Z M11.0814514,47.8785548 C11.1336183,48.1325206 11.2229039,48.3544907 11.3473019,48.5434653 C11.4716999,48.7334397 11.6382326,48.8834195 11.8469002,48.9954045 C12.0555678,49.1063895 12.315399,49.162382 12.6273971,49.162382 C12.9113054,49.162382 13.1570917,49.1113889 13.3667625,49.0094026 C13.5754301,48.9084162 13.7469789,48.7654354 13.8814089,48.5814602 C14.0148358,48.3984848 14.1141535,48.1795143 14.1763525,47.9255485 C14.2395547,47.6715827 14.2716574,47.3916204 14.2716574,47.0866614 C14.2716574,46.8016998 14.2445708,46.5317361 14.1914007,46.2777703 C14.1382306,46.0238045 14.0509513,45.8008345 13.9285598,45.6098602 C13.8061682,45.4178861 13.6406387,45.2669064 13.4309679,45.1559213 C13.2233036,45.0439364 12.9624691,44.9879439 12.650471,44.9879439 C12.3635531,44.9879439 12.1157603,45.0389371 11.908096,45.1409233 C11.702438,45.2429096 11.5318924,45.3858904 11.3974624,45.5718653 C11.2630323,45.7578403 11.1637146,45.9768108 11.098506,46.2307766 C11.0343006,46.4847424 11.0011947,46.762705 11.0011947,47.0636645 C11.0011947,47.3526256 11.0272781,47.624589 11.0814514,47.8785548 Z M19.0479375,44.2940373 C19.0850563,44.2800392 19.1352167,44.2710404 19.1974157,44.267041 C19.2596147,44.2630415 19.3358586,44.2610418 19.4261475,44.2610418 C19.5354973,44.2610418 19.6237797,44.2640414 19.6899916,44.2700406 C19.7562034,44.2760398 19.8073671,44.2860384 19.8424794,44.3000365 C19.8775917,44.3130348 19.902672,44.3330321 19.9187233,44.3580287 C19.9337715,44.3840252 19.9478164,44.4140212 19.9598549,44.4490165 L21.2309213,48.798431 L21.2429598,48.8514238 L21.2549983,48.798431 L22.4207276,44.4490165 C22.4287533,44.4140212 22.441795,44.3840252 22.4588496,44.3580287 C22.4769074,44.3330321 22.5029908,44.3130348 22.5381031,44.3000365 C22.5732155,44.2860384 22.6213695,44.2760398 22.6815621,44.2700406 C22.7427579,44.2640414 22.8220114,44.2610418 22.9193227,44.2610418 C23.0126212,44.2610418 23.0898683,44.2640414 23.1510641,44.2700406 C23.2112567,44.2760398 23.2594107,44.2860384 23.2945231,44.3000365 C23.3296354,44.3130348 23.3547156,44.3320322 23.370767,44.3550291 C23.3858151,44.3790259 23.3978536,44.4060223 23.4058793,44.4370181 L24.6659104,48.798431 L24.6779489,48.8514238 L24.6829649,48.798431 L25.9379799,44.4490165 C25.9450024,44.4140212 25.9580441,44.3840252 25.9761019,44.3580287 C25.9931564,44.3330321 26.0202431,44.3130348 26.0573618,44.3000365 C26.0944806,44.2860384 26.1456443,44.2760398 26.2098497,44.2700406 C26.2750583,44.2640414 26.3573215,44.2610418 26.4596488,44.2610418 C26.5529473,44.2610418 26.628188,44.2630415 26.6853709,44.267041 C26.7415507,44.2710404 26.7866951,44.2810391 26.819801,44.2970369 C26.8529069,44.3120349 26.8759807,44.3300325 26.8900257,44.3490299 C26.9040706,44.3690272 26.9100899,44.3960236 26.9100899,44.4320188 C26.9100899,44.4590151 26.906077,44.4920107 26.8990546,44.5310054 C26.8910289,44.5700002 26.876984,44.6189936 26.857923,44.6779857 L25.3049548,49.6903109 C25.2929163,49.7333051 25.2738553,49.7683004 25.248775,49.7952968 C25.2236948,49.8222932 25.1885825,49.8442902 25.143438,49.860288 C25.0982936,49.875286 25.0370978,49.8862845 24.9588475,49.8922837 C24.8805972,49.8982829 24.7832859,49.9012825 24.6659104,49.9012825 C24.544522,49.9012825 24.4431979,49.8972831 24.3609347,49.8892841 C24.2786715,49.8812852 24.2134629,49.8692868 24.1643056,49.8542888 C24.1161516,49.838291 24.080036,49.8172938 24.055959,49.7892976 C24.0328852,49.7623012 24.0148274,49.7293057 24.0037921,49.6903109 L22.8962489,45.8618263 L22.8842104,45.8088334 L22.8721719,45.8618263 L21.8468918,49.6903109 C21.8348533,49.7333051 21.8167956,49.7683004 21.7907121,49.7952968 C21.7656319,49.8222932 21.7275099,49.8442902 21.6763462,49.860288 C21.6261858,49.875286 21.5599739,49.8862845 21.4807204,49.8922837 C21.4004636,49.8982829 21.3011459,49.9012825 21.1847736,49.9012825 C21.0633853,49.9012825 20.9650708,49.8972831 20.8888268,49.8892841 C20.8125829,49.8812852 20.7493807,49.8692868 20.7012267,49.8542888 C20.6520694,49.838291 20.6159539,49.8172938 20.5928801,49.7892976 C20.568803,49.7623012 20.5517485,49.7293057 20.53971,49.6903109 L18.9987803,44.6779857 C18.9787161,44.6189936 18.9646711,44.5700002 18.9576487,44.5310054 C18.949623,44.4920107 18.9456102,44.4590151 18.9456102,44.4320188 C18.9456102,44.3960236 18.9536358,44.3680274 18.968684,44.3460303 C18.9847353,44.3250332 19.0108188,44.3070356 19.0479375,44.2940373 Z M31.2188744,44.9619474 C31.4395805,44.7099813 31.7064342,44.5160075 32.0184323,44.3820255 C32.3314336,44.2470437 32.6815537,44.1790528 33.0677894,44.1790528 C33.4821149,44.1790528 33.8342414,44.2460438 34.1261753,44.3790259 C34.4171061,44.512008 34.6558699,44.689984 34.8434701,44.9149538 C35.0310702,45.1399235 35.1685099,45.4038879 35.2567924,45.7068472 C35.3450748,46.0098064 35.389216,46.3327629 35.389216,46.6767166 L35.389216,46.8526929 C35.389216,47.0046724 35.351094,47.1136578 35.2738469,47.1776492 C35.197603,47.2426404 35.1103238,47.2746361 35.0120093,47.2746361 L31.537895,47.2746361 C31.537895,47.5675967 31.5669881,47.8315611 31.6261774,48.0665295 C31.6853668,48.300498 31.7836813,48.501471 31.921121,48.6694483 C32.0585607,48.8384256 32.237132,48.9674082 32.4568348,49.0563963 C32.6765377,49.1463841 32.9453978,49.1913781 33.2634152,49.1913781 C33.5152208,49.1913781 33.7389365,49.1713808 33.9355655,49.1303863 C34.1311914,49.0893918 34.3007338,49.043398 34.4451959,48.9924049 C34.5876517,48.9414117 34.7050272,48.8954179 34.7973224,48.8544234 C34.8906209,48.813429 34.9598424,48.7934317 35.0069932,48.7934317 C35.0350831,48.7934317 35.0591601,48.7994308 35.0802275,48.813429 C35.1022981,48.8274271 35.1183495,48.8474244 35.1313912,48.8754206 C35.1424265,48.902417 35.1514554,48.9404119 35.1574746,48.9894053 C35.1634939,49.0383987 35.1665035,49.0973907 35.1665035,49.1683812 C35.1665035,49.2193743 35.1644971,49.2633684 35.1604842,49.3003634 C35.1564714,49.3373584 35.1514554,49.370354 35.1454361,49.3993501 C35.1394169,49.429346 35.130388,49.4553426 35.116343,49.4793393 C35.1022981,49.5023362 35.0852435,49.5243333 35.0631729,49.5463303 C35.0421055,49.5673275 34.9789033,49.6033226 34.8725631,49.6513162 C34.7672262,49.7003096 34.6307897,49.7483031 34.4622505,49.7952968 C34.2947145,49.8422905 34.1000919,49.8842848 33.8793858,49.9212798 C33.6586797,49.9582748 33.4239287,49.9772723 33.1731264,49.9772723 C32.7397399,49.9772723 32.3595235,49.9162805 32.0334804,49.7952968 C31.7074374,49.6743131 31.432558,49.4943373 31.2098455,49.2563693 C30.987133,49.0174015 30.819597,48.7184417 30.7062344,48.3594901 C30.5928717,47.9995385 30.5356888,47.5815948 30.5356888,47.104659 C30.5356888,46.65172 30.5948781,46.2437749 30.7112504,45.8828235 C30.8286259,45.5208722 30.9981683,45.2139135 31.2188744,44.9619474 Z M34.4161028,46.5657315 C34.4271382,46.0577999 34.3147787,45.6588536 34.0770181,45.3698925 C33.8392574,45.0799315 33.4861277,44.9359509 33.0186321,44.9359509 C32.7788651,44.9359509 32.5681911,44.9809449 32.3876134,45.0709328 C32.2060325,45.1599208 32.0545478,45.2799046 31.9331595,45.4278847 C31.8107679,45.5768647 31.7164663,45.7498414 31.6502544,45.9468149 C31.5830394,46.1437883 31.5459207,46.3507605 31.537895,46.5657315 L34.4161028,46.5657315 Z M39.8284177,44.3050359 C39.8635301,44.2880381 39.9086745,44.2760398 39.9628478,44.2700406 C40.0180243,44.2640414 40.0902554,44.2610418 40.1805443,44.2610418 C40.2658171,44.2610418 40.3370449,44.2640414 40.3942279,44.2700406 C40.4504076,44.2760398 40.4945488,44.2880381 40.5256483,44.3050359 C40.5567478,44.3230334 40.5798216,44.3430307 40.5928633,44.3640279 C40.6069083,44.386025 40.6139307,44.4120215 40.6139307,44.4430173 L40.6139307,45.2109139 C40.7583929,44.9999423 40.8938262,44.8279655 41.0212338,44.6949834 C41.1476382,44.5620013 41.2680233,44.4580153 41.381386,44.3820255 C41.4947486,44.3050359 41.6071081,44.2530429 41.7184643,44.2230469 C41.8298206,44.1940508 41.94218,44.1790528 42.0555427,44.1790528 C42.1067064,44.1790528 42.1638893,44.1820524 42.2280947,44.1880516 C42.2933033,44.1940508 42.3605184,44.2050493 42.430743,44.2200473 C42.5009677,44.2360451 42.5641699,44.2540427 42.6213528,44.2730402 C42.6775325,44.2930375 42.7176609,44.3120349 42.7417379,44.3320322 C42.7648118,44.3510297 42.7808631,44.3700271 42.7878856,44.3870248 C42.7959113,44.4050224 42.8029337,44.4280193 42.808953,44.4550157 C42.8149722,44.482012 42.8189851,44.5220067 42.8199883,44.5749995 C42.8219947,44.6279924 42.8229979,44.6989828 42.8229979,44.7889707 C42.8229979,44.8749591 42.8209915,44.9469494 42.8179819,45.0059415 C42.813969,45.0649336 42.8059433,45.1109274 42.7939048,45.1439229 C42.7818663,45.1769185 42.7678214,45.2019151 42.7497636,45.2199127 C42.7327091,45.2379103 42.7076288,45.2459092 42.6765293,45.2459092 C42.6454298,45.2459092 42.6073079,45.2379103 42.5621635,45.2199127 C42.5180222,45.2019151 42.4668586,45.1849174 42.4106788,45.1669198 C42.3534959,45.1499221 42.2902937,45.1329244 42.220069,45.1169266 C42.1488412,45.1019286 42.0736005,45.0939297 41.9913373,45.0939297 C41.8930228,45.0939297 41.7977179,45.113927 41.7034162,45.1529217 C41.6101177,45.1919165 41.5118032,45.2559079 41.4074694,45.3458957 C41.3041388,45.4358836 41.1957922,45.5548676 41.0824295,45.7038476 C40.9690669,45.8518276 40.8446689,46.0338031 40.7072292,46.2487742 L40.7072292,49.719307 C40.7072292,49.7503028 40.7002067,49.7772992 40.6841554,49.7982964 C40.668104,49.8202934 40.6430238,49.838291 40.6079115,49.8542888 C40.5727991,49.8692868 40.5236419,49.8812852 40.4614429,49.8892841 C40.3992439,49.8972831 40.3189872,49.9012825 40.2206726,49.9012825 C40.1273742,49.9012825 40.0491238,49.8972831 39.9869248,49.8892841 C39.9237226,49.8812852 39.8745654,49.8692868 39.8374466,49.8542888 C39.8003279,49.838291 39.7742444,49.8202934 39.7612027,49.7982964 C39.7471578,49.7772992 39.7401353,49.7503028 39.7401353,49.719307 L39.7401353,44.4430173 C39.7401353,44.4120215 39.7461546,44.386025 39.7581931,44.3640279 C39.7702316,44.3430307 39.7933054,44.3230334 39.8284177,44.3050359 Z M46.9782914,44.9619474 C47.1989975,44.7099813 47.4658512,44.5160075 47.7788525,44.3820255 C48.0908506,44.2470437 48.4409707,44.1790528 48.8282096,44.1790528 C49.2415319,44.1790528 49.5946616,44.2460438 49.8855923,44.3790259 C50.1765231,44.512008 50.4162901,44.689984 50.6038903,44.9149538 C50.7914904,45.1399235 50.9289301,45.4038879 51.0172126,45.7068472 C51.1044918,46.0098064 51.148633,46.3327629 51.148633,46.6767166 L51.148633,46.8526929 C51.148633,47.0046724 51.110511,47.1136578 51.0342671,47.1776492 C50.95702,47.2426404 50.8697408,47.2746361 50.7714263,47.2746361 L47.2983152,47.2746361 C47.2983152,47.5675967 47.3274083,47.8315611 47.3865976,48.0665295 C47.4447838,48.300498 47.5430983,48.501471 47.6815412,48.6694483 C47.8179777,48.8384256 47.9975522,48.9674082 48.217255,49.0563963 C48.4369579,49.1463841 48.705818,49.1913781 49.0238354,49.1913781 C49.275641,49.1913781 49.4993567,49.1713808 49.6949825,49.1303863 C49.8916116,49.0893918 50.061154,49.043398 50.2046129,48.9924049 C50.3480719,48.9414117 50.4654474,48.8954179 50.5577426,48.8544234 C50.6500379,48.813429 50.7202626,48.7934317 50.7664102,48.7934317 C50.7945001,48.7934317 50.8195803,48.7994308 50.8406477,48.813429 C50.8617151,48.8274271 50.8787697,48.8474244 50.8908082,48.8754206 C50.9028467,48.902417 50.9118756,48.9404119 50.9168916,48.9894053 C50.9229109,49.0383987 50.9259205,49.0973907 50.9259205,49.1683812 C50.9259205,49.2193743 50.9239141,49.2633684 50.9199013,49.3003634 C50.9158884,49.3373584 50.9118756,49.370354 50.9058563,49.3993501 C50.8998371,49.429346 50.889805,49.4553426 50.87576,49.4793393 C50.8627183,49.5023362 50.8446605,49.5243333 50.8235931,49.5463303 C50.8015225,49.5673275 50.7383203,49.6033226 50.6329834,49.6513162 C50.5276464,49.7003096 50.3912099,49.7483031 50.2226707,49.7952968 C50.0551347,49.8422905 49.8605121,49.8842848 49.639806,49.9212798 C49.4190999,49.9582748 49.1833457,49.9772723 48.9335466,49.9772723 C48.4991569,49.9772723 48.1199437,49.9162805 47.7928974,49.7952968 C47.4668544,49.6743131 47.1929782,49.4943373 46.9702657,49.2563693 C46.7475532,49.0174015 46.579014,48.7184417 46.4656514,48.3594901 C46.3522887,47.9995385 46.296109,47.5815948 46.296109,47.104659 C46.296109,46.65172 46.3542951,46.2437749 46.4716706,45.8828235 C46.5890461,45.5208722 46.7575853,45.2139135 46.9782914,44.9619474 Z M50.1755199,46.5657315 C50.1875584,46.0577999 50.0741957,45.6588536 49.8364351,45.3698925 C49.5986744,45.0799315 49.2455447,44.9359509 48.7790523,44.9359509 C48.5382821,44.9359509 48.3286113,44.9809449 48.1470304,45.0709328 C47.9664527,45.1599208 47.8149681,45.2799046 47.6935797,45.4278847 C47.5711882,45.5768647 47.4768865,45.7498414 47.4096714,45.9468149 C47.3434596,46.1437883 47.3063409,46.3507605 47.2983152,46.5657315 L50.1755199,46.5657315 Z M55.7463418,44.9829446 C55.9379548,44.7249793 56.1757155,44.5260061 56.4586205,44.3870248 C56.7425288,44.2490434 57.0695751,44.1790528 57.4407626,44.1790528 C57.7487479,44.1790528 58.0316529,44.2470437 58.2874713,44.3820255 C58.5432897,44.5160075 58.7960985,44.7149807 59.0458977,44.9769454 L59.0458977,41.9103582 C59.0458977,41.8833619 59.0529201,41.8573654 59.0669651,41.8313689 C59.08101,41.8063722 59.1070934,41.7863749 59.1462186,41.7733767 C59.1853438,41.7593785 59.234501,41.7473802 59.2956968,41.7373815 C59.3558894,41.7283827 59.4331365,41.7233834 59.5274382,41.7233834 C59.6247495,41.7233834 59.7050063,41.7283827 59.7672053,41.7373815 C59.8294042,41.7473802 59.8785615,41.7593785 59.9136738,41.7733767 C59.9487862,41.7863749 59.9748696,41.8063722 59.9929274,41.8313689 C60.0099819,41.8573654 60.0190108,41.8833619 60.0190108,41.9103582 L60.0190108,49.719307 C60.0190108,49.7503028 60.0119884,49.7782991 59.9989466,49.801296 C59.9849017,49.8242929 59.9618279,49.8432903 59.928722,49.8572884 C59.8956161,49.8702867 59.8514748,49.8812852 59.7962983,49.8892841 C59.742125,49.8972831 59.67491,49.9012825 59.5976629,49.9012825 C59.5153997,49.9012825 59.4471814,49.8972831 59.3920049,49.8892841 C59.3378316,49.8812852 59.2926872,49.8702867 59.2575749,49.8572884 C59.2224625,49.8432903 59.1963791,49.8242929 59.1813309,49.801296 C59.1652796,49.7782991 59.1572539,49.7503028 59.1572539,49.719307 L59.1572539,49.021401 C58.8803681,49.3223605 58.592447,49.5573288 58.2934906,49.7253062 C57.9945342,49.8932836 57.6674879,49.9772723 57.3113486,49.9772723 C56.9251129,49.9772723 56.5940538,49.9022824 56.3211808,49.7513027 C56.0473047,49.6013229 55.8255954,49.3973504 55.656053,49.1413848 C55.4855074,48.8854193 55.3621126,48.5844598 55.2838623,48.2385064 C55.205612,47.8935528 55.1664868,47.5286019 55.1664868,47.1456535 C55.1664868,46.6927144 55.215644,46.2827696 55.3129554,45.9178188 C55.4102667,45.551868 55.5547288,45.2409099 55.7463418,44.9829446 Z M56.2298888,47.8195628 C56.2710204,48.0735286 56.3422482,48.2994981 56.4435724,48.4964716 C56.5458998,48.694445 56.6803298,48.8524237 56.848869,48.9714077 C57.016405,49.0913915 57.227079,49.1503836 57.4818942,49.1503836 C57.610305,49.1503836 57.7347029,49.1333859 57.8540849,49.0973907 C57.9724636,49.0623954 58.0948551,49.0044033 58.2202563,48.9214144 C58.3446543,48.8394255 58.4760747,48.7334397 58.6125112,48.6024574 C58.7489477,48.471475 58.8934098,48.3104967 59.0458977,48.1185225 L59.0458977,46.0088065 C58.78406,45.6838503 58.5312512,45.4368835 58.2874713,45.2669064 C58.0426882,45.0969293 57.787873,45.0119407 57.5220225,45.0119407 C57.2762362,45.0119407 57.0675687,45.0709328 56.8950166,45.187917 C56.7234678,45.3049013 56.5840217,45.4588805 56.4766783,45.6508547 C56.3683317,45.841829 56.2910846,46.0587998 56.2419273,46.3017671 C56.19277,46.5437345 56.168693,46.7897014 56.168693,47.0406676 C56.168693,47.3056319 56.1887572,47.5655969 56.2298888,47.8195628 Z M70.3791546,41.7463803 C70.4162734,41.7313823 70.4654307,41.7193839 70.5286329,41.711385 C70.5908318,41.7033861 70.6690822,41.6993866 70.7623806,41.6993866 C70.8606952,41.6993866 70.9409519,41.7033861 71.0031509,41.711385 C71.0653499,41.7193839 71.1145072,41.7313823 71.1496195,41.7463803 C71.1847318,41.7623781 71.2098121,41.7813756 71.2258634,41.8053724 C71.2409115,41.8283693 71.2489372,41.8563655 71.2489372,41.8873613 L71.2489372,45.046936 C71.4054379,44.8869575 71.5569225,44.7519757 71.7033911,44.6429904 C71.8498597,44.5330052 71.9933186,44.4440172 72.1337679,44.3760263 C72.2752205,44.3070356 72.4156698,44.2580422 72.5561191,44.2260465 C72.6965684,44.1950507 72.8450434,44.1790528 73.0015441,44.1790528 C73.3847701,44.1790528 73.7118164,44.2560425 73.9836861,44.408022 C74.2545527,44.5600015 74.4752588,44.7649739 74.6458044,45.0209395 C74.8153468,45.276905 74.9397447,45.5768647 75.0179951,45.9208184 C75.0962454,46.264772 75.1353706,46.6277232 75.1353706,47.0106716 C75.1353706,47.4676101 75.0852101,47.8795547 74.9858924,48.2445055 C74.8855714,48.6104563 74.7391028,48.9214144 74.5454834,49.1803796 C74.3528672,49.4383448 74.1151066,49.6353183 73.8342079,49.7722999 C73.5523061,49.9082816 73.2302759,49.9772723 72.867114,49.9772723 C72.6985749,49.9772723 72.5430774,49.9602746 72.4006217,49.927279 C72.2581659,49.8942835 72.1187198,49.8402907 71.9822833,49.7663007 C71.8448436,49.6923107 71.7084071,49.5983233 71.5719707,49.4843386 C71.434531,49.3713539 71.2900688,49.2343723 71.137581,49.0743938 L71.137581,49.719307 C71.137581,49.7503028 71.1305585,49.7782991 71.1145072,49.801296 C71.0984558,49.8242929 71.0733756,49.8432903 71.0382632,49.8572884 C71.0031509,49.8702867 70.9590097,49.8812852 70.9058396,49.8892841 C70.8536727,49.8972831 70.7864577,49.9012825 70.7041945,49.9012825 C70.6259442,49.9012825 70.5597323,49.8972831 70.5045558,49.8892841 C70.4503825,49.8812852 70.4052381,49.8702867 70.3701258,49.8572884 C70.3350134,49.8432903 70.3119396,49.8242929 70.2999011,49.801296 C70.2878626,49.7782991 70.2818433,49.7503028 70.2818433,49.719307 L70.2818433,41.8873613 C70.2818433,41.8563655 70.2888658,41.8283693 70.3029107,41.8053724 C70.3159525,41.7813756 70.3420359,41.7623781 70.3791546,41.7463803 Z M71.2489372,48.1485185 C71.5167941,48.4724749 71.7716093,48.7194416 72.0163924,48.8894187 C72.2591691,49.0593959 72.5129811,49.1443844 72.7768252,49.1443844 C73.0206051,49.1443844 73.2282694,49.0863922 73.4018247,48.9684081 C73.5743767,48.8514238 73.714826,48.6964447 73.8231726,48.5024708 C73.930516,48.3094968 74.0097696,48.092526 74.0589269,47.8525583 C74.1080841,47.6115907 74.1331643,47.3686235 74.1331643,47.1226566 C74.1331643,46.8526929 74.112097,46.5907282 74.0709654,46.3367624 C74.0298338,46.0827965 73.9576027,45.8578268 73.8552753,45.6628531 C73.752948,45.4668795 73.6185179,45.3099006 73.4489755,45.1909166 C73.2794331,45.0719326 73.0697623,45.0119407 72.8179568,45.0119407 C72.6915524,45.0119407 72.5681576,45.0289384 72.4467693,45.0649336 C72.3243777,45.0999289 72.200983,45.157921 72.0745786,45.2409099 C71.9491774,45.3228988 71.817757,45.4278847 71.6823237,45.5568673 C71.5468904,45.68585 71.4024283,45.8478282 71.2489372,46.0438018 L71.2489372,48.1485185 Z M78.9124541,44.2760398 C78.9826788,44.2660411 79.0759772,44.2610418 79.1933527,44.2610418 C79.3107282,44.2610418 79.4030235,44.2640414 79.4692353,44.2700406 C79.5354472,44.2760398 79.5886173,44.2870383 79.6277424,44.3030361 C79.6668676,44.3180341 79.6949575,44.341031 79.712012,44.3700271 C79.7300698,44.3990232 79.7481276,44.4390178 79.7681917,44.490011 L81.2740091,48.7224412 L81.2920669,48.7224412 L82.7457173,44.4670141 C82.7687912,44.3920242 82.796881,44.3440306 82.8299869,44.3230334 C82.8630928,44.3020363 82.9132533,44.2860384 82.9794651,44.2760398 C83.0466802,44.2660411 83.1419851,44.2610418 83.2673862,44.2610418 C83.3767361,44.2610418 83.4660217,44.2660411 83.5362464,44.2760398 C83.606471,44.2860384 83.6586379,44.304036 83.6917438,44.3320322 C83.7248497,44.3590286 83.7419043,44.3960236 83.7419043,44.4430173 C83.7419043,44.490011 83.7298658,44.549003 83.706792,44.6189936 L81.8137358,49.8652874 L81.110486,51.8060261 C81.0864089,51.8690176 81.0272196,51.9170112 80.9319147,51.9500067 C80.8356066,51.9830023 80.6901412,52 80.4945154,52 C80.3931912,52 80.310928,51.9950007 80.2487291,51.985002 C80.1865301,51.9750034 80.138376,51.9590055 80.1052701,51.9350087 C80.0721642,51.9120118 80.0531032,51.8800162 80.0490904,51.8410214 C80.0450775,51.8020267 80.0551096,51.755033 80.0781835,51.7010402 L80.8055103,49.8652874 C80.770398,49.8502894 80.7372921,49.8242929 80.7061926,49.7892976 C80.6740899,49.7543023 80.6530225,49.7173073 80.6409839,49.6783125 L78.7599663,44.6369912 C78.7288668,44.5550022 78.7128154,44.490011 78.7128154,44.4430173 C78.7128154,44.3960236 78.7288668,44.3590286 78.7599663,44.3320322 C78.7910658,44.304036 78.8422294,44.2860384 78.9124541,44.2760398 Z M93.8050981,42.2803084 L95.5225927,42.2803084 C96.1786917,42.2803084 96.7334665,42.365297 97.1869171,42.5352741 C97.6403678,42.7052512 98.0205842,42.9492184 98.3265631,43.2681754 C98.6335451,43.5861326 98.8662897,43.9720807 99.0247968,44.4260196 C99.1823007,44.8789586 99.2615543,45.3908897 99.2615543,45.9618128 C99.2615543,46.6177245 99.1782879,47.1916473 99.0097487,47.6825812 C98.8422127,48.1725152 98.5964264,48.5794605 98.2743962,48.9014171 C97.9523659,49.2233738 97.5560982,49.4653412 97.0875994,49.6253197 C96.6191006,49.7852981 96.060313,49.8652874 95.4112364,49.8652874 L93.8050981,49.8652874 C93.7158125,49.8652874 93.6305397,49.8352914 93.5502829,49.7752995 C93.4700262,49.7143077 93.4298978,49.608322 93.4298978,49.4553426 L93.4298978,42.6902532 C93.4298978,42.5382737 93.4700262,42.4312881 93.5502829,42.3712962 C93.6305397,42.3103044 93.7158125,42.2803084 93.8050981,42.2803084 Z M94.4381233,49.021401 L95.4754419,49.021401 C95.959992,49.021401 96.3682982,48.961409 96.7003606,48.8394255 C97.0324229,48.7184417 97.3103119,48.5334666 97.5330244,48.2825004 C97.7557369,48.0325341 97.9222697,47.7195762 98.0336259,47.3416271 C98.1449822,46.9646778 98.2011619,46.5187379 98.2011619,46.0028073 C98.2011619,45.5918626 98.1499982,45.2099141 98.048674,44.8569616 C97.9473499,44.5030092 97.7878396,44.1970504 97.5711464,43.9390851 C97.3544531,43.6811198 97.0795737,43.4801469 96.7475114,43.3351664 C96.4154491,43.1901859 95.9870787,43.1181956 95.4644065,43.1181956 L94.4381233,43.1181956 L94.4381233,49.021401 Z M103.915443,44.9619474 C104.136149,44.7099813 104.403003,44.5160075 104.715001,44.3820255 C105.028002,44.2470437 105.378122,44.1790528 105.764358,44.1790528 C106.178683,44.1790528 106.53081,44.2460438 106.822744,44.3790259 C107.113674,44.512008 107.352438,44.689984 107.540039,44.9149538 C107.727639,45.1399235 107.866082,45.4038879 107.953361,45.7068472 C108.041643,46.0098064 108.085784,46.3327629 108.085784,46.6767166 L108.085784,46.8526929 C108.085784,47.0046724 108.047662,47.1136578 107.970415,47.1776492 C107.894171,47.2426404 107.806892,47.2746361 107.708578,47.2746361 L104.234463,47.2746361 C104.234463,47.5675967 104.26456,47.8315611 104.322746,48.0665295 C104.381935,48.300498 104.48025,48.501471 104.617689,48.6694483 C104.755129,48.8384256 104.9337,48.9674082 105.153403,49.0563963 C105.373106,49.1463841 105.641966,49.1913781 105.959984,49.1913781 C106.211789,49.1913781 106.435505,49.1713808 106.632134,49.1303863 C106.828763,49.0893918 106.998305,49.043398 107.141764,48.9924049 C107.28422,48.9414117 107.402599,48.8954179 107.494894,48.8544234 C107.587189,48.813429 107.656411,48.7934317 107.703562,48.7934317 C107.731652,48.7934317 107.755729,48.7994308 107.776796,48.813429 C107.798867,48.8274271 107.814918,48.8474244 107.82796,48.8754206 C107.838995,48.902417 107.848024,48.9404119 107.854043,48.9894053 C107.860062,49.0383987 107.863072,49.0973907 107.863072,49.1683812 C107.863072,49.2193743 107.861066,49.2633684 107.857053,49.3003634 C107.85304,49.3373584 107.848024,49.370354 107.842005,49.3993501 C107.835985,49.429346 107.826956,49.4553426 107.812911,49.4793393 C107.798867,49.5023362 107.781812,49.5243333 107.759741,49.5463303 C107.738674,49.5673275 107.675472,49.6033226 107.570135,49.6513162 C107.463795,49.7003096 107.327358,49.7483031 107.159822,49.7952968 C106.991283,49.8422905 106.79666,49.8842848 106.575954,49.9212798 C106.355248,49.9582748 106.120497,49.9772723 105.869695,49.9772723 C105.436308,49.9772723 105.056092,49.9162805 104.730049,49.7952968 C104.404006,49.6743131 104.129126,49.4943373 103.906414,49.2563693 C103.683701,49.0174015 103.516165,48.7184417 103.402803,48.3594901 C103.28944,47.9995385 103.232257,47.5815948 103.232257,47.104659 C103.232257,46.65172 103.291447,46.2437749 103.408822,45.8828235 C103.526198,45.5208722 103.694737,45.2139135 103.915443,44.9619474 Z M107.112671,46.5657315 C107.12471,46.0577999 107.011347,45.6588536 106.773586,45.3698925 C106.535826,45.0799315 106.182696,44.9359509 105.715201,44.9359509 C105.475433,44.9359509 105.26476,44.9809449 105.084182,45.0709328 C104.902601,45.1599208 104.751116,45.2799046 104.629728,45.4278847 C104.50834,45.5768647 104.414038,45.7498414 104.346823,45.9468149 C104.279608,46.1437883 104.242489,46.3507605 104.234463,46.5657315 L107.112671,46.5657315 Z M111.783614,44.2940373 C111.820733,44.2800392 111.86989,44.2710404 111.930083,44.267041 C111.991279,44.2630415 112.065516,44.2610418 112.155805,44.2610418 C112.269168,44.2610418 112.36046,44.2640414 112.428678,44.2700406 C112.496896,44.2760398 112.549063,44.2870383 112.586182,44.3030361 C112.623301,44.3180341 112.651391,44.3380314 112.668445,44.3610283 C112.686503,44.3850251 112.702554,44.4140212 112.718606,44.4490165 L114.207368,48.798431 L114.230442,48.8694214 L114.2485,48.798431 L115.719205,44.4490165 C115.727231,44.4140212 115.741276,44.3850251 115.760337,44.3610283 C115.779398,44.3380314 115.808491,44.3180341 115.845609,44.3030361 C115.882728,44.2870383 115.932889,44.2760398 115.998097,44.2700406 C116.062303,44.2640414 116.147575,44.2610418 116.252912,44.2610418 C116.342198,44.2610418 116.416436,44.2630415 116.475625,44.267041 C116.533811,44.2710404 116.579959,44.2810391 116.613065,44.2970369 C116.646171,44.3120349 116.669244,44.3310324 116.683289,44.3520295 C116.697334,44.3740266 116.704357,44.4000231 116.704357,44.4320188 C116.704357,44.4470167 116.703353,44.4640145 116.701347,44.4810122 C116.699341,44.4990097 116.696331,44.5170073 116.692318,44.5370046 C116.688305,44.5570019 116.683289,44.5779991 116.67727,44.6019959 C116.671251,44.6249928 116.665232,44.6499894 116.657206,44.6779857 L114.857448,49.6903109 C114.8424,49.7333051 114.821333,49.7683004 114.796252,49.7952968 C114.771172,49.8222932 114.73305,49.8442902 114.681886,49.860288 C114.630723,49.875286 114.566517,49.8862845 114.488267,49.8922837 C114.410017,49.8982829 114.312705,49.9012825 114.19533,49.9012825 C114.077954,49.9012825 113.980643,49.8972831 113.902393,49.8892841 C113.824142,49.8812852 113.76094,49.8692868 113.711783,49.8542888 C113.662626,49.838291 113.624504,49.8172938 113.597417,49.7892976 C113.57033,49.7623012 113.549263,49.7293057 113.533212,49.6903109 L111.739473,44.6779857 C111.724425,44.630992 111.711383,44.5899975 111.701351,44.5550022 C111.692322,44.5190071 111.686303,44.4930106 111.684297,44.475013 C111.68229,44.4580153 111.681287,44.4430173 111.681287,44.4320188 C111.681287,44.4000231 111.689313,44.3730267 111.704361,44.3490299 C111.720412,44.326033 111.746496,44.3070356 111.783614,44.2940373 Z M121.277988,43.2381795 C121.570926,42.8962255 121.922049,42.6352606 122.330355,42.4562847 C122.738661,42.276309 123.191109,42.1863211 123.686694,42.1863211 C123.906397,42.1863211 124.119078,42.2063184 124.325739,42.2473129 C124.533403,42.2893072 124.725016,42.3403003 124.900578,42.4032919 C125.076139,42.4652835 125.23264,42.5382737 125.369077,42.6202627 C125.506516,42.7022516 125.600818,42.7692426 125.652985,42.8222355 C125.706155,42.8752283 125.740264,42.915223 125.756315,42.9422193 C125.771364,42.9702155 125.784405,43.0022112 125.794437,43.0392063 C125.803466,43.0762013 125.811492,43.1201954 125.817511,43.1711885 C125.82353,43.2221816 125.82654,43.2821736 125.82654,43.353164 C125.82654,43.4311535 125.822527,43.4971446 125.814502,43.5521372 C125.806476,43.6071298 125.795441,43.6531236 125.779389,43.6901186 C125.763338,43.7271137 125.74528,43.75411 125.72321,43.7721076 C125.702142,43.7901052 125.675055,43.7981041 125.643956,43.7981041 C125.588779,43.7981041 125.511532,43.7601092 125.414221,43.6841194 C125.315906,43.6081297 125.189502,43.524141 125.034005,43.4321534 C124.878507,43.3401657 124.689904,43.2561771 124.468194,43.1801873 C124.246485,43.1031976 123.980635,43.0652028 123.66964,43.0652028 C123.332561,43.0652028 123.024576,43.1331936 122.74769,43.2681754 C122.470805,43.4021574 122.234047,43.6011306 122.037418,43.8630954 C121.841792,44.1250601 121.689304,44.4440172 121.580958,44.8209664 C121.472611,45.1989155 121.419441,45.6288577 121.419441,46.1137924 C121.419441,46.5947276 121.470605,47.0196704 121.574938,47.3886208 C121.679272,47.758571 121.82875,48.0665295 122.023373,48.315496 C122.217996,48.5634626 122.455756,48.7504374 122.738661,48.8784202 C123.021566,49.0054031 123.34159,49.0683946 123.699736,49.0683946 C124.001702,49.0683946 124.265546,49.0313996 124.491268,48.9574096 C124.717994,48.8824197 124.91061,48.7994308 125.069117,48.7084431 C125.227624,48.6164555 125.358041,48.5334666 125.461372,48.4584767 C125.562696,48.3844867 125.643956,48.3474917 125.702142,48.3474917 C125.730232,48.3474917 125.753306,48.3534909 125.77337,48.3654893 C125.792431,48.3764878 125.808482,48.3994847 125.820521,48.4324802 C125.832559,48.4654758 125.840585,48.5114696 125.846604,48.5704617 C125.852624,48.6284539 125.855633,48.7034438 125.855633,48.7934317 C125.855633,48.8554233 125.853627,48.9104159 125.849614,48.9574096 C125.845601,49.0044033 125.839582,49.0453977 125.82955,49.080393 C125.819518,49.1153883 125.806476,49.1463841 125.791428,49.1743804 C125.775376,49.2013767 125.74829,49.2343723 125.709165,49.273367 C125.670039,49.3123618 125.587776,49.3723537 125.463378,49.452343 C125.337977,49.5323322 125.18248,49.6103217 124.996886,49.6873113 C124.811292,49.7633011 124.598612,49.8272925 124.357841,49.8802853 C124.118074,49.9332782 123.855234,49.9592747 123.570322,49.9592747 C123.077746,49.9592747 122.633324,49.8772857 122.237057,49.7133078 C121.839786,49.5493299 121.501704,49.3073625 121.222812,48.9864057 C120.942917,48.6664487 120.72823,48.270502 120.577748,47.7995654 C120.427267,47.3286288 120.352026,46.7857019 120.352026,46.1727844 C120.352026,45.5438691 120.433286,44.9829446 120.595806,44.490011 C120.757323,43.9980772 120.985051,43.5801334 121.277988,43.2381795 Z M130.058077,41.7463803 C130.095196,41.7313823 130.145357,41.7193839 130.207556,41.711385 C130.270758,41.7033861 130.349008,41.6993866 130.442307,41.6993866 C130.539618,41.6993866 130.619875,41.7033861 130.683077,41.711385 C130.745276,41.7193839 130.794433,41.7313823 130.829546,41.7463803 C130.864658,41.7623781 130.889738,41.7813756 130.905789,41.8053724 C130.920838,41.8283693 130.928863,41.8563655 130.928863,41.8873613 L130.928863,49.719307 C130.928863,49.7503028 130.920838,49.7772992 130.905789,49.7982964 C130.889738,49.8202934 130.864658,49.838291 130.829546,49.8542888 C130.794433,49.8692868 130.745276,49.8812852 130.683077,49.8892841 C130.619875,49.8972831 130.539618,49.9012825 130.442307,49.9012825 C130.349008,49.9012825 130.270758,49.8972831 130.207556,49.8892841 C130.145357,49.8812852 130.095196,49.8692868 130.058077,49.8542888 C130.020959,49.838291 129.995878,49.8202934 129.981834,49.7982964 C129.968792,49.7772992 129.961769,49.7503028 129.961769,49.719307 L129.961769,41.8873613 C129.961769,41.8563655 129.968792,41.8283693 129.981834,41.8053724 C129.995878,41.7813756 130.020959,41.7623781 130.058077,41.7463803 Z M135.898763,45.0059415 C136.123482,44.7439768 136.403377,44.5410041 136.739452,44.3960236 C137.075527,44.252043 137.468786,44.1790528 137.918223,44.1790528 C138.35161,44.1790528 138.72982,44.2440441 139.05185,44.3730267 C139.37388,44.5020093 139.64274,44.6889842 139.857427,44.9359509 C140.073117,45.1819178 140.233631,45.4808776 140.340974,45.8328302 C140.449321,46.183783 140.502491,46.5807295 140.502491,47.02267 C140.502491,47.4526121 140.446311,47.8485588 140.332948,48.2095103 C140.219586,48.5714615 140.050043,48.8824197 139.825325,49.1443844 C139.600606,49.4063491 139.319707,49.6103217 138.981625,49.7573019 C138.643544,49.9042821 138.252292,49.9772723 137.806867,49.9772723 C137.372477,49.9772723 136.995271,49.912281 136.672237,49.7832984 C136.350207,49.6543158 136.081347,49.4673409 135.86666,49.221374 C135.651973,48.9744073 135.49146,48.6754475 135.386123,48.3244948 C135.280786,47.9725422 135.227616,47.5735959 135.227616,47.1276559 C135.227616,46.6987136 135.283795,46.3027669 135.395152,45.9408157 C135.506508,45.5798642 135.674044,45.2679062 135.898763,45.0059415 Z M136.310079,47.8785548 C136.363249,48.1325206 136.451531,48.3544907 136.575929,48.5434653 C136.700327,48.7334397 136.86686,48.8834195 137.075527,48.9954045 C137.284195,49.1063895 137.545029,49.162382 137.856024,49.162382 C138.139933,49.162382 138.386722,49.1113889 138.59539,49.0094026 C138.804057,48.9084162 138.975606,48.7654354 139.110036,48.5814602 C139.243463,48.3984848 139.342781,48.1795143 139.405983,47.9255485 C139.468182,47.6715827 139.500285,47.3916204 139.500285,47.0866614 C139.500285,46.8016998 139.473198,46.5317361 139.420028,46.2777703 C139.366858,46.0238045 139.279579,45.8008345 139.157187,45.6098602 C139.034795,45.4178861 138.869266,45.2669064 138.660598,45.1559213 C138.451931,45.0439364 138.191096,44.9879439 137.880101,44.9879439 C137.59218,44.9879439 137.344388,45.0389371 137.137726,45.1409233 C136.931065,45.2429096 136.76052,45.3858904 136.62609,45.5718653 C136.492663,45.7578403 136.392342,45.9768108 136.328136,46.2307766 C136.262928,46.4847424 136.229822,46.762705 136.229822,47.0636645 C136.229822,47.3526256 136.255905,47.624589 136.310079,47.8785548 Z M144.877487,44.3050359 C144.916612,44.2880381 144.967776,44.2760398 145.029975,44.2700406 C145.092174,44.2640414 145.170424,44.2610418 145.264726,44.2610418 C145.358025,44.2610418 145.436275,44.2640414 145.499477,44.2700406 C145.561676,44.2760398 145.611837,44.2880381 145.648955,44.3050359 C145.686074,44.3230334 145.712157,44.3430307 145.727206,44.3640279 C145.743257,44.386025 145.751283,44.4120215 145.751283,44.4430173 L145.751283,47.5146038 C145.751283,47.8235622 145.773353,48.070529 145.818498,48.2565039 C145.863642,48.4424789 145.93186,48.6004576 146.023152,48.73144 C146.115448,48.8624224 146.23182,48.9644086 146.372269,49.0363989 C146.512719,49.1083893 146.677245,49.1443844 146.864845,49.1443844 C147.106619,49.1443844 147.348392,49.058396 147.588159,48.8864191 C147.828929,48.7144423 148.083745,48.4624762 148.353608,48.1305209 L148.353608,44.4430173 C148.353608,44.4120215 148.359627,44.386025 148.373672,44.3640279 C148.387717,44.3430307 148.4138,44.3230334 148.452926,44.3050359 C148.492051,44.2880381 148.542211,44.2760398 148.602404,44.2700406 C148.662596,44.2640414 148.74185,44.2610418 148.840164,44.2610418 C148.933463,44.2610418 149.011713,44.2640414 149.073912,44.2700406 C149.137114,44.2760398 149.185269,44.2880381 149.220381,44.3050359 C149.255493,44.3230334 149.28258,44.3430307 149.299634,44.3640279 C149.317692,44.386025 149.325718,44.4120215 149.325718,44.4430173 L149.325718,49.719307 C149.325718,49.7503028 149.319699,49.7772992 149.305654,49.7982964 C149.291609,49.8202934 149.267532,49.838291 149.232419,49.8542888 C149.197307,49.8692868 149.151159,49.8812852 149.09498,49.8892841 C149.037797,49.8972831 148.968575,49.9012825 148.886312,49.9012825 C148.797026,49.9012825 148.723792,49.8972831 148.666609,49.8892841 C148.61043,49.8812852 148.565285,49.8692868 148.532179,49.8542888 C148.499073,49.838291 148.475999,49.8202934 148.464964,49.7982964 C148.452926,49.7772992 148.446906,49.7503028 148.446906,49.719307 L148.446906,49.021401 C148.145944,49.3533563 147.848994,49.5963236 147.556056,49.7483031 C147.263119,49.9012825 146.966169,49.9772723 146.665206,49.9772723 C146.314083,49.9772723 146.018136,49.9182802 145.777366,49.801296 C145.536596,49.6843117 145.342976,49.5243333 145.194501,49.3233603 C145.046026,49.1223874 144.939686,48.887419 144.874478,48.6204549 C144.810272,48.352491 144.778169,48.0265349 144.778169,47.6435864 L144.778169,44.4430173 C144.778169,44.4120215 144.785192,44.386025 144.798234,44.3640279 C144.812279,44.3430307 144.838362,44.3230334 144.877487,44.3050359 Z" id="logo复制"></path>
                </g>
            </g>
        </g>
    </g>
</svg>